<?xml version="1.0" encoding="UTF-8" standalone="no"?>
<svg
   xmlns:dc="http://purl.org/dc/elements/1.1/"
   xmlns:cc="http://creativecommons.org/ns#"
   xmlns:rdf="http://www.w3.org/1999/02/22-rdf-syntax-ns#"
   xmlns:svg="http://www.w3.org/2000/svg"
   xmlns="http://www.w3.org/2000/svg"
   xmlns:sodipodi="http://sodipodi.sourceforge.net/DTD/sodipodi-0.dtd"
   xmlns:inkscape="http://www.inkscape.org/namespaces/inkscape"
   width="46.404mm"
   height="11.03mm"
   version="1.1"
   viewBox="0 0 46.404 11.03"
   id="svg1149"
   sodipodi:docname="aconite_.svg"
   inkscape:version="1.0.1 (c497b03c, 2020-09-10)">
  <metadata
     id="metadata1153">
    <rdf:RDF>
      <cc:Work
         rdf:about="">
        <dc:format>image/svg+xml</dc:format>
        <dc:type
           rdf:resource="http://purl.org/dc/dcmitype/StillImage" />
        <dc:title></dc:title>
      </cc:Work>
    </rdf:RDF>
  </metadata>
  <sodipodi:namedview
     pagecolor="#ffffff"
     bordercolor="#666666"
     borderopacity="1"
     objecttolerance="10"
     gridtolerance="10"
     guidetolerance="10"
     inkscape:pageopacity="0"
     inkscape:pageshadow="2"
     inkscape:window-width="1920"
     inkscape:window-height="1052"
     id="namedview1151"
     showgrid="false"
     inkscape:zoom="6.2491022"
     inkscape:cx="87.612586"
     inkscape:cy="25.004692"
     inkscape:window-x="0"
     inkscape:window-y="28"
     inkscape:window-maximized="0"
     inkscape:current-layer="svg1149" />
  <defs
     id="defs1109">
    <clipPath
       id="clipPath91">
      <path
         d="m392.07 77.578h175.86v-50.232h-175.86z"
         id="path1100" />
    </clipPath>
    <clipPath
       id="clipPath95">
      <path
         d="m393.07 28.347h173.86v48.232h-173.86z"
         id="path1103" />
    </clipPath>
    <clipPath
       id="clipPath99">
      <path
         d="m453.09 70.725c-3.256 7.313-19.257 7.302-35.834 0.013 13.674 5.119 26.09 4.783 28.725-1.133 2.886-6.483-7.065-17.21-22.226-23.96-12.655-5.635-24.94-6.718-30.334-3.152 4.563-6.005 19.749-5.509 35.377 1.449 16.693 7.432 27.569 19.423 24.292 26.783"
         id="path1106" />
    </clipPath>
  </defs>
  <rect
     style="opacity:1;fill:#ffffff;stroke-width:1.00013;paint-order:stroke markers fill"
     id="rect1716"
     width="46.403999"
     height="10.92357"
     x="0"
     y="0" />
  <g
     transform="translate(-10.06 -50.425)"
     id="g1147">
    <g
       transform="matrix(.26745 0 0 -.23099 -95.158 68.029)"
       id="g1145">
      <g
         clip-path="url(#clipPath91)"
         id="g1143">
        <g
           clip-path="url(#clipPath95)"
           id="g1141">
          <path
             d="m453.09 70.725c-3.256 7.313-19.257 7.302-35.834 0.013 13.674 5.119 26.09 4.783 28.725-1.133 2.886-6.483-7.065-17.21-22.226-23.96-12.655-5.635-24.94-6.718-30.334-3.152 4.563-6.005 19.749-5.509 35.377 1.449 16.693 7.432 27.569 19.423 24.292 26.783"
             fill="#d7dbd8"
             id="path1111" />
          <g
             clip-path="url(#clipPath99)"
             id="g1117">
            <path
               d="m404.18 62.561c3.256 7.313 19.256 7.302 35.834 0.013-13.674 5.119-26.09 4.783-28.724-1.133-2.887-6.483 7.064-17.21 22.225-23.961 12.655-5.635 24.94-6.717 30.334-3.151-4.563-6.005-19.749-5.51-35.377 1.448-16.693 7.433-27.569 19.424-24.292 26.784"
               fill="#fff"
               id="path1113" />
            <path
               d="m400.74 59.632c3.256 7.313 19.256 7.303 35.834 0.014-13.674 5.118-26.09 4.783-28.725-1.134-2.885-6.482 7.065-17.21 22.226-23.96 12.655-5.635 24.94-6.718 30.333-3.152-4.562-6.004-19.748-5.509-35.376 1.449-16.693 7.432-27.569 19.423-24.292 26.783"
               fill="#c2c9c4"
               id="path1115" />
          </g>
          <g
             fill="#004687"
             id="g1129">
            <path
               d="m475.46 42.065c-0.229 0.623-0.295 1.769-0.295 4.717v5.666c0 4.028-2.325 5.502-5.863 5.502-2.03 0-3.864-0.393-5.862-1.769l1.146-2.194c0.95 0.622 2.26 1.244 4.029 1.244 1.736 0 3.111-0.785 3.111-2.947v-0.458l-2.882-0.099c-4.028-0.164-6.419-1.932-6.419-5.109 0-3.013 2.227-4.88 4.945-4.88 2.162 0 3.603 0.852 4.586 1.769l0.655-1.442zm-3.766 3.669c-0.557-0.525-1.572-1.245-3.177-1.245-1.769 0-2.686 1.015-2.686 2.391 0 1.441 1.015 2.26 3.34 2.325l2.523 0.098z"
               fill-rule="evenodd"
               id="path1119" />
            <path
               d="m491.98 43.375-0.916 2.26c-1.048-0.622-2.195-1.113-3.734-1.113-3.112 0-4.716 2.424-4.716 5.339 0 3.11 1.932 5.338 4.781 5.338 1.605 0 2.882-0.459 3.93-1.212l0.033 2.915c-0.95 0.557-2.358 1.048-4.225 1.048-4.814 0-7.926-3.668-7.926-8.253 0-4.291 2.522-7.959 7.468-7.959 2.128 0 4.094 0.786 5.305 1.637"
               id="path1121" />
            <path
               d="m502.02 57.95c-2.129 0-3.963-0.786-5.273-2.161-1.409-1.442-2.227-3.571-2.227-6.027 0-2.489 0.818-4.684 2.325-6.124 1.277-1.245 3.046-1.9 5.175-1.9 2.194 0 4.028 0.786 5.371 2.129 1.408 1.441 2.194 3.57 2.194 5.994 0 2.39-0.753 4.486-2.128 5.895-1.311 1.408-3.177 2.194-5.437 2.194m-0.033-2.751c2.587 0 4.094-2.129 4.094-5.371 0-3.144-1.408-5.372-4.029-5.372-2.521 0-4.06 2.162-4.06 5.372 0 3.176 1.375 5.371 3.995 5.371"
               fill-rule="evenodd"
               id="path1123" />
            <path
               d="m527.15 42.065v10.35c0 4.028-2.423 5.535-4.716 5.535-2.129 0-3.766-0.819-5.502-2.129l-0.393 1.736h-2.849v-15.492h3.406v10.972c1.212 0.95 2.686 1.867 4.225 1.867 2.096 0 2.423-1.9 2.423-3.57v-9.269z"
               id="path1125" />
            <path
               d="m535.78 57.557h-3.406v-15.492h3.406z"
               id="path1127" />
          </g>
          <g
             id="g1139">
            <path
               d="m534.07 64.5c-1.245 0-2.194-0.949-2.194-2.129 0-1.179 0.949-2.129 2.194-2.129 1.212 0 2.161 0.983 2.161 2.129 0 1.212-0.949 2.129-2.161 2.129"
               fill="#99a49c"
               id="path1131" />
            <path
               d="m550.87 43.375-0.949 2.228c-0.623-0.426-1.605-0.95-2.621-0.95-1.015 0-1.506 0.589-1.506 1.801v8.45h3.734l1.081 2.653h-4.815v4.552l-3.406-1.047v-3.505h-2.686v-2.653h2.686v-9.662c0-2.03 1.081-3.504 3.636-3.504 1.473 0 3.373 0.557 4.846 1.637"
               fill="#004687"
               id="path1133" />
            <path
               d="m566.93 49.009v0.95c0 4.814-2.555 7.991-6.681 7.991-4.193 0-6.78-3.603-6.78-8.024 0-4.225 2.325-8.188 7.533-8.188 1.802 0 3.865 0.557 5.404 1.67l-0.884 2.227c-1.212-0.688-2.522-1.08-3.898-1.08-2.784 0-4.617 1.899-4.651 4.454zm-3.537 2.522h-6.452c0 1.932 1.211 3.766 3.242 3.766 2.162 0 3.177-1.965 3.21-3.766"
               fill="#004687"
               fill-rule="evenodd"
               id="path1135" />
            <path
               d="m403.3 60.853c3.256 7.313 19.256 7.302 35.834 0.013-13.675 5.119-26.091 4.783-28.725-1.133-2.886-6.483 7.064-17.21 22.225-23.961 12.656-5.634 24.94-6.717 30.334-3.151-4.563-6.005-19.748-5.51-35.377 1.448-16.693 7.433-27.568 19.424-24.291 26.784"
               fill="#99a49c"
               id="path1137" />
          </g>
        </g>
      </g>
    </g>
  </g>
</svg>
