<svg xmlns="http://www.w3.org/2000/svg" width="128.398" height="112.53"><defs><clipPath clipPathUnits="userSpaceOnUse" id="prefix__a"><path d="M0 0h595.276v841.89H0z"/></clipPath></defs><g clip-path="url(#prefix__a)" transform="matrix(1.33333 0 0 -1.33333 -617.116 1082.835)"><path d="M532.301 812.126h-42.627a5.926 5.926 0 01-5.926-5.923v-42.629a5.926 5.926 0 015.926-5.924h48.55v48.553a5.922 5.922 0 01-5.923 5.923" fill="#a0a500"/><path d="M511.184 766.282c10.42-.038 18.89 8.375 18.922 18.792.009 2.486-.773 5.726-.78 4.915-.02-7.043-6.511-12.732-13.437-11.763-5.242.729-11.084 5.552-10.036 13.104 1.048 7.556 7.64 10.516 12.368 9.858 7.577-1.06 9.198-6.853 6.933-9.587-2.29-3.136-6.983-1.286-6.983 2.276 0 2.036 1.303 2.903 1.512 3.069-3.885 1.15-7.888-1.923-8.448-5.967-.617-4.415 2.645-7.843 6.3-8.352 6.744-.94 10.61 4.502 10.61 9.266 0 5.679-6.013 12.113-16.845 12.113-10.413 0-18.887-8.372-18.921-18.787-.031-10.418 8.387-18.896 18.805-18.937" fill="#fff"/><path d="M550.14 745.674c-5.037 0-8.996-3.887-8.996-8.964 0-5.072 3.959-8.958 8.997-8.958 5.039 0 8.995 3.886 8.995 8.958 0 5.077-3.956 8.964-8.995 8.964m0-3.095c3.203 0 5.759-2.664 5.759-5.869 0-3.165-2.556-5.866-5.76-5.866-3.2 0-5.755 2.701-5.755 5.866 0 3.205 2.555 5.87 5.756 5.87M508.513 730.846c-3.203 0-5.756 2.7-5.756 5.866 0 3.203 2.553 5.867 5.756 5.867 3.206 0 5.76-2.664 5.76-5.867 0-3.167-2.554-5.866-5.76-5.866m5.701 14.327v-1.924h-.117c-1.31 1.474-3.448 2.425-5.67 2.425-5.04 0-8.998-3.887-8.998-8.962 0-5.074 3.957-8.959 8.997-8.959 2.223 0 4.36.981 5.671 2.425h.117v-1.882h3.236v16.877zM529.326 730.846c-3.203 0-5.758 2.7-5.758 5.866 0 3.203 2.555 5.867 5.758 5.867 3.204 0 5.764-2.664 5.764-5.867 0-3.167-2.56-5.866-5.764-5.866m5.696 22.404v-10h-.117c-1.31 1.473-3.445 2.424-5.67 2.424-5.036 0-8.993-3.887-8.993-8.962 0-5.074 3.957-8.959 8.994-8.959 2.224 0 4.36.981 5.669 2.425h.117v-1.882h3.24v24.954zM496.491 732.69c-1.053-1.14-2.53-1.866-4.189-1.866-3.204 0-5.756 2.7-5.756 5.864 0 3.206 2.552 5.87 5.756 5.87 1.664 0 3.145-.722 4.19-1.862l1.565 2.945c-1.547 1.266-3.544 2.01-5.755 2.01-5.04 0-8.995-3.884-8.995-8.963 0-5.074 3.954-8.96 8.995-8.96 2.211 0 4.208.75 5.755 2.013zM471.83 745.674c-5.04 0-8.993-3.887-8.993-8.964 0-5.072 3.953-8.958 8.992-8.958 5.037 0 8.997 3.886 8.997 8.958 0 5.077-3.96 8.964-8.997 8.964m0-3.095c3.208 0 5.763-2.664 5.763-5.869 0-3.165-2.555-5.866-5.763-5.866-3.199 0-5.756 2.701-5.756 5.866 0 3.205 2.557 5.87 5.756 5.87" fill="#4c4f52"/></g></svg>