<?xml version="1.0" encoding="UTF-8" standalone="no"?>
<!-- Created with Inkscape (http://www.inkscape.org/) -->

<svg
   xmlns:dc="http://purl.org/dc/elements/1.1/"
   xmlns:cc="http://creativecommons.org/ns#"
   xmlns:rdf="http://www.w3.org/1999/02/22-rdf-syntax-ns#"
   xmlns:svg="http://www.w3.org/2000/svg"
   xmlns="http://www.w3.org/2000/svg"
   xmlns:sodipodi="http://sodipodi.sourceforge.net/DTD/sodipodi-0.dtd"
   xmlns:inkscape="http://www.inkscape.org/namespaces/inkscape"
   version="1.1"
   id="svg2"
   xml:space="preserve"
   width="128.39774"
   height="112.52973"
   viewBox="0 0 128.39773 112.52973"
   sodipodi:docname="Ocado.svg"
   inkscape:version="0.92.1 r15371"><metadata
     id="metadata8"><rdf:RDF><cc:Work
         rdf:about=""><dc:format>image/svg+xml</dc:format><dc:type
           rdf:resource="http://purl.org/dc/dcmitype/StillImage" /><dc:title></dc:title></cc:Work></rdf:RDF></metadata><defs
     id="defs6"><clipPath
       clipPathUnits="userSpaceOnUse"
       id="clipPath18"><path
         d="M 0,0 H 595.276 V 841.89 H 0 Z"
         id="path16"
         inkscape:connector-curvature="0" /></clipPath></defs><sodipodi:namedview
     pagecolor="#ffffff"
     bordercolor="#666666"
     borderopacity="1"
     objecttolerance="10"
     gridtolerance="10"
     guidetolerance="10"
     inkscape:pageopacity="0"
     inkscape:pageshadow="2"
     inkscape:window-width="1920"
     inkscape:window-height="1017"
     id="namedview4"
     showgrid="false"
     fit-margin-top="0"
     fit-margin-left="0"
     fit-margin-right="0"
     fit-margin-bottom="0"
     inkscape:zoom="5.6568543"
     inkscape:cx="126.73458"
     inkscape:cy="62.172806"
     inkscape:window-x="-8"
     inkscape:window-y="-8"
     inkscape:window-maximized="1"
     inkscape:current-layer="g10" /><g
     id="g10"
     inkscape:groupmode="layer"
     inkscape:label="A9R1128nup_br6rle_dcg"
     transform="matrix(1.3333333,0,0,-1.3333333,-617.11638,1082.8346)"><g
       id="g64"><g
         id="g12"><g
           clip-path="url(#clipPath18)"
           id="g14"><g
             transform="translate(532.301,812.126)"
             id="g20"><path
               inkscape:connector-curvature="0"
               id="path22"
               style="fill:#a0a500;fill-opacity:1;fill-rule:nonzero;stroke:none"
               d="m 0,0 h -42.627 c -3.271,0 -5.926,-2.652 -5.926,-5.923 v -42.629 c 0,-3.272 2.655,-5.924 5.926,-5.924 H 5.923 V -5.923 C 5.923,-2.652 3.273,0 0,0" /></g><g
             transform="translate(511.1837,766.2817)"
             id="g24"><path
               inkscape:connector-curvature="0"
               id="path26"
               style="fill:#ffffff;fill-opacity:1;fill-rule:nonzero;stroke:none"
               d="m 0,0 c 10.42,-0.038 18.891,8.375 18.922,18.792 0.009,2.486 -0.773,5.726 -0.779,4.915 -0.021,-7.043 -6.512,-12.732 -13.438,-11.763 -5.242,0.729 -11.084,5.552 -10.036,13.104 1.048,7.556 7.64,10.516 12.368,9.858 7.577,-1.059 9.198,-6.853 6.933,-9.587 -2.29,-3.136 -6.983,-1.286 -6.983,2.276 0,2.036 1.303,2.903 1.512,3.069 -3.885,1.15 -7.888,-1.923 -8.448,-5.967 -0.617,-4.415 2.645,-7.843 6.301,-8.352 6.743,-0.94 10.609,4.502 10.609,9.266 0,5.679 -6.013,12.113 -16.845,12.113 -10.413,0 -18.887,-8.372 -18.921,-18.787 C -18.836,8.519 -10.418,0.041 0,0" /></g><g
             transform="translate(550.1406,745.6744)"
             id="g28"><path
               inkscape:connector-curvature="0"
               id="path30"
               style="fill:#4c4f52;fill-opacity:1;fill-rule:nonzero;stroke:none"
               d="m 0,0 c -5.038,0 -8.997,-3.887 -8.997,-8.964 0,-5.072 3.959,-8.958 8.997,-8.958 5.039,0 8.995,3.886 8.995,8.958 C 8.995,-3.887 5.039,0 0,0 m 0,-3.095 c 3.203,0 5.759,-2.664 5.759,-5.869 0,-3.165 -2.556,-5.866 -5.759,-5.866 -3.201,0 -5.756,2.701 -5.756,5.866 0,3.205 2.555,5.869 5.756,5.869" /></g><g
             transform="translate(508.5132,730.8463)"
             id="g32"><path
               inkscape:connector-curvature="0"
               id="path34"
               style="fill:#4c4f52;fill-opacity:1;fill-rule:nonzero;stroke:none"
               d="m 0,0 c -3.203,0 -5.756,2.699 -5.756,5.866 0,3.203 2.553,5.867 5.756,5.867 3.206,0 5.759,-2.664 5.759,-5.867 C 5.759,2.699 3.206,0 0,0 M 5.701,14.327 V 12.403 H 5.584 c -1.311,1.474 -3.448,2.425 -5.671,2.425 -5.04,0 -8.997,-3.887 -8.997,-8.962 0,-5.074 3.957,-8.959 8.997,-8.959 2.223,0 4.36,0.981 5.671,2.425 H 5.701 V -2.55 h 3.236 v 16.877 z" /></g><g
             transform="translate(529.3257,730.8463)"
             id="g36"><path
               inkscape:connector-curvature="0"
               id="path38"
               style="fill:#4c4f52;fill-opacity:1;fill-rule:nonzero;stroke:none"
               d="m 0,0 c -3.203,0 -5.758,2.699 -5.758,5.866 0,3.203 2.555,5.867 5.758,5.867 3.204,0 5.764,-2.664 5.764,-5.867 C 5.764,2.699 3.204,0 0,0 M 5.696,22.404 V 12.403 H 5.579 c -1.309,1.474 -3.445,2.425 -5.669,2.425 -5.037,0 -8.994,-3.887 -8.994,-8.962 0,-5.074 3.957,-8.959 8.994,-8.959 2.224,0 4.36,0.981 5.669,2.425 H 5.696 V -2.55 h 3.24 v 24.954 z" /></g><g
             transform="translate(496.4915,732.6907)"
             id="g40"><path
               inkscape:connector-curvature="0"
               id="path42"
               style="fill:#4c4f52;fill-opacity:1;fill-rule:nonzero;stroke:none"
               d="m 0,0 c -1.053,-1.141 -2.53,-1.867 -4.189,-1.867 -3.204,0 -5.756,2.701 -5.756,5.864 0,3.206 2.552,5.87 5.756,5.87 1.664,0 3.145,-0.722 4.189,-1.862 l 1.566,2.945 c -1.547,1.266 -3.544,2.011 -5.755,2.011 -5.041,0 -8.995,-3.885 -8.995,-8.964 0,-5.074 3.954,-8.959 8.995,-8.959 2.211,0 4.208,0.749 5.755,2.012 z" /></g><g
             transform="translate(471.8293,745.6744)"
             id="g44"><path
               inkscape:connector-curvature="0"
               id="path46"
               style="fill:#4c4f52;fill-opacity:1;fill-rule:nonzero;stroke:none"
               d="m 0,0 c -5.039,0 -8.992,-3.887 -8.992,-8.964 0,-5.072 3.953,-8.958 8.992,-8.958 5.037,0 8.997,3.886 8.997,8.958 C 8.997,-3.887 5.037,0 0,0 m 0,-3.095 c 3.208,0 5.763,-2.664 5.763,-5.869 0,-3.165 -2.555,-5.866 -5.763,-5.866 -3.199,0 -5.756,2.701 -5.756,5.866 0,3.205 2.557,5.869 5.756,5.869" /></g></g></g></g></g></svg>