<?xml version="1.0" encoding="UTF-8" standalone="no"?>
<svg
   xmlns:dc="http://purl.org/dc/elements/1.1/"
   xmlns:cc="http://creativecommons.org/ns#"
   xmlns:rdf="http://www.w3.org/1999/02/22-rdf-syntax-ns#"
   xmlns:svg="http://www.w3.org/2000/svg"
   xmlns="http://www.w3.org/2000/svg"
   height="115.82199"
   width="400"
   id="svg1001"
   version="1.1"
   viewBox="0 0 400 115.82199">
  <path
     d="M 391.03077,115.82199 H 8.9692255 C 4.0269992,115.82199 0,111.79499 0,106.85276 V 8.92347 C 0,4.027 4.0269992,0 8.9692255,0 H 391.03077 C 395.973,0 400,4.027 400,8.96923 v 97.92929 c -0.0458,4.89647 -4.027,8.92347 -8.96923,8.92347 z"
     id="path990"
     style="fill:#ffffff;stroke-width:0.45761356" />
  <path
     d="M 280.42558,110.42215 H 9.060748 c -2.0134995,0 -3.615147,-1.64741 -3.615147,-3.61515 V 9.06075 c 0,-2.0135 1.647409,-3.61515 3.615147,-3.61515 H 280.42558 c 2.0135,0 3.61515,1.64741 3.61515,3.61515 v 97.70049 c 0,2.0135 -1.64741,3.66091 -3.61515,3.66091 z"
     id="path992"
     style="fill:#222745;stroke-width:0.45761356" />
  <path
     d="m 390.93925,110.42215 h -97.70049 c -2.0135,0 -3.61514,-1.64741 -3.61514,-3.61515 V 9.06075 c 0,-2.0135 1.6474,-3.61515 3.61514,-3.61515 h 97.70049 c 2.0135,0 3.61515,1.64741 3.61515,3.61515 v 97.70049 c 0,2.0135 -1.60165,3.66091 -3.61515,3.66091 z"
     id="path994"
     style="fill:#da292f;stroke-width:0.45761356" />
  <path
     d="m 125.98101,67.498 v 28.189 h -5.62865 V 67.498 h -9.74716 v -5.03375 h 25.12298 V 67.498 Z m 53.86111,28.189 h -5.4456 l -9.19803,-23.38406 h 5.81169 l 6.17778,17.16051 6.17779,-17.16051 h 5.62864 z m 34.27526,-33.36003 h 5.39984 v 33.40578 h -5.39984 z m 48.96465,33.36003 -5.81169,-8.4201 -5.90322,8.4201 h -6.13202 l 8.92346,-11.8522 -8.60313,-11.53186 h 6.36082 l 5.53713,7.96248 5.58288,-7.96248 h 6.17779 l -8.6489,11.4861 8.92346,11.89796 z"
     id="path996"
     style="fill:#ffffff;stroke-width:0.45761356" />
  <path
     d="m 142.63814,72.21142 c -2.19655,0.18305 -4.16428,0.73218 -5.58289,2.24231 V 72.3487 h -4.71342 v 23.38405 h 5.39984 V 85.57373 c 0,-1.83045 -0.0915,-4.39308 0.54914,-6.08626 0.54914,-1.51012 1.37284,-2.69992 5.67441,-3.06601 l 0.54914,-4.34733 c -0.0457,0 -0.5949,0 -1.87622,0.13729 m 10.25054,19.40281 c -3.70667,0 -4.53037,-1.09827 -4.53037,-3.11177 0,-2.47111 1.05251,-3.06601 4.34733,-3.06601 h 6.2693 c 0,4.07276 -0.54913,6.17778 -6.08626,6.17778 m 1.32708,-19.67738 c -2.60839,-0.0915 -5.17103,0.13728 -6.36083,0.32033 l -0.50337,4.11852 c 3.20329,-0.18305 6.36083,-0.0457 6.58963,-0.0457 4.66766,0.18305 4.75919,1.83046 4.94223,4.71342 h -5.99474 c -4.98798,0 -9.97597,0.77795 -9.97597,7.55062 0,5.72017 3.52362,7.45911 9.10651,7.45911 3.34058,0 5.81169,-1.00675 7.27605,-2.28807 v 1.92198 h 4.85071 V 80.44853 c 0,-6.0405 -3.70667,-8.28281 -9.93022,-8.51162 m 45.85288,4.43885 c 5.03375,0 5.30832,1.92198 5.30832,5.26256 h -10.52511 c 0,-3.06601 0.50338,-5.26256 5.21679,-5.26256 m -0.0457,15.33006 c -3.66091,-0.13729 -4.8507,-1.41861 -5.17103,-3.75243 0,-0.0915 -0.0457,-0.22881 -0.0457,-0.32033 v -0.18305 c -0.0457,-0.41185 -0.0457,-0.86947 -0.0457,-1.37284 h 16.01647 c 0,-8.14552 -0.45761,-14.14026 -10.66239,-14.14026 -9.38108,0 -10.75392,5.35408 -10.75392,12.35557 0,2.88296 0.27457,5.4456 1.28132,7.41334 1.4186,3.02025 4.57613,4.34733 9.10651,4.34733 h 0.50337 c 3.29482,0 6.95573,-0.22881 8.83194,-0.45762 l 0.5949,-4.34732 c -3.2033,0.2288 -5.99473,0.59489 -9.65565,0.45761 m 33.49731,-15.33006 c 5.03375,0 5.30833,1.92198 5.30833,5.26256 h -10.5253 c 0,-3.06601 0.50338,-5.26256 5.21679,-5.26256 m 0,15.33006 c -3.66091,-0.13729 -4.8507,-1.41861 -5.17103,-3.75243 0,-0.0915 -0.0457,-0.22881 -0.0457,-0.32033 v -0.18305 c -0.0458,-0.41185 -0.0458,-0.86947 -0.0458,-1.37284 h 16.01647 c 0,-8.14552 -0.45761,-14.14026 -10.66239,-14.14026 -9.38108,0 -10.75392,5.35408 -10.75392,12.35557 0,2.88296 0.27457,5.4456 1.28132,7.41334 1.4186,3.02025 4.57613,4.34733 9.10651,4.34733 h 0.50338 c 3.29481,0 6.95572,-0.22881 8.83194,-0.45762 l 0.5949,-4.34732 c -3.24907,0.2288 -6.04051,0.59489 -9.65566,0.45761 m 95.77852,-19.31129 c -0.8237,0.0915 -1.51012,0.27457 -2.0135,0.8237 v -0.77794 h -1.69317 v 8.51161 h 1.96774 v -3.70667 c 0,-0.64066 -0.0457,-1.60165 0.18304,-2.19654 0.18305,-0.54914 0.50338,-1.00675 2.05926,-1.09828 l 0.18305,-1.60164 c -0.0457,0 -0.22881,0 -0.68642,0.0457 m 46.67658,1.55588 c 1.83046,0 1.92198,0.68642 1.92198,1.92198 h -3.79819 c 0,-1.14403 0.13728,-1.92198 1.87621,-1.92198 m 0,5.53712 c -1.32708,-0.0457 -1.78469,-0.50337 -1.87621,-1.37283 v -0.68642 h 5.81169 c 0,-2.97449 -0.18305,-5.12528 -3.88972,-5.12528 -3.38634,0 -3.88971,1.92198 -3.88971,4.48462 0,1.05251 0.0915,1.96774 0.45761,2.69992 0.50338,1.09827 1.64741,1.55588 3.29482,1.60164 h 0.13728 c 1.1898,0 2.51688,-0.0915 3.2033,-0.18304 l 0.2288,-1.55589 c -1.14403,0.0457 -2.19654,0.18305 -3.47786,0.13729 m -35.282,9.19803 c 1.83045,0 1.92197,0.68642 1.92197,1.92198 h -3.79819 c 0,-1.14404 0.13729,-1.92198 1.87622,-1.92198 m 0,5.53712 c -1.32708,-0.0457 -1.7847,-0.50337 -1.87622,-1.37284 v -0.68642 h 5.81169 c 0,-2.97449 -0.18304,-5.12527 -3.88971,-5.12527 -3.38634,0 -3.88972,1.92198 -3.88972,4.48461 0,1.05251 0.0915,1.96774 0.45762,2.69992 0.50337,1.09828 1.64741,1.55589 3.29481,1.60165 h 0.13729 c 1.18979,0 2.51687,-0.0915 3.20329,-0.18304 l 0.22881,-1.55589 c -1.14403,0.0915 -2.19655,0.18304 -3.47786,0.13728 M 312.59582,80.95184 h -1.96774 l -1.73893,-6.6354 -1.7847,6.6354 h -2.05926 l -2.28807,-8.51162 h 1.92198 l 1.51013,6.36084 1.69317,-6.36084 h 1.92197 l 1.73893,6.36084 1.46437,-6.36084 h 1.92197 z m 7.27605,-6.90997 c -1.92198,0 -2.05926,0.73218 -2.05926,2.65416 0,1.92198 0.18304,2.65416 2.05926,2.65416 1.92197,0 2.05926,-0.73218 2.05926,-2.65416 0,-1.92198 -0.18305,-2.65416 -2.05926,-2.65416 m 3.11177,6.08626 c -0.73218,0.73218 -1.7847,0.96099 -3.15754,0.96099 -1.37284,0 -2.42535,-0.22881 -3.15753,-0.96099 -0.73218,-0.73218 -0.91523,-1.83045 -0.91523,-3.4321 0,-1.60165 0.13729,-2.69992 0.91523,-3.4321 0.73218,-0.73218 1.73893,-0.96099 3.15753,-0.96099 1.37284,0 2.42536,0.22881 3.15754,0.96099 0.73218,0.73218 0.91522,1.83045 0.91522,3.4321 0,1.60165 -0.13727,2.69992 -0.91522,3.4321 m 8.64889,-11.34881 h 1.96774 v 12.12675 h -1.96774 z m 7.4591,5.35407 c -1.46436,0 -1.78469,0.5949 -1.78469,2.6084 0,1.96774 0.32033,2.6084 1.78469,2.6084 1.69317,0 2.19655,-0.45762 2.19655,-2.6084 -0.0457,-2.15078 -0.54914,-2.6084 -2.19655,-2.6084 m 2.33383,6.81845 v -0.68642 c -0.50337,0.45761 -1.46436,0.8237 -2.56263,0.8237 -3.38634,0 -3.52363,-2.28807 -3.52363,-4.39309 0,-2.56264 0.50338,-4.39309 3.29482,-4.39309 0.91523,0 1.92198,0.0915 2.56264,0.77794 v -4.2558 h 1.96774 v 12.12676 z m 13.17927,0 H 352.637 l -1.73894,-6.6354 -1.78469,6.6354 h -2.05926 l -2.28807,-8.51162 h 1.92198 l 1.46436,6.36083 1.73893,-6.36083 h 1.92198 l 1.69317,6.36083 1.51013,-6.36083 h 1.87621 z m 4.027,-8.51162 h 1.96774 v 8.51162 h -1.96774 z m 7.68791,1.69317 c -1.46436,0 -1.78469,0.5949 -1.78469,2.6084 0,1.96774 0.32033,2.6084 1.78469,2.6084 1.69317,0 2.19655,-0.45762 2.19655,-2.6084 -0.0457,-2.15078 -0.54914,-2.6084 -2.19655,-2.6084 m 2.33383,6.81845 v -0.68642 c -0.50338,0.45761 -1.46436,0.8237 -2.56264,0.8237 -3.38634,0 -3.52362,-2.28807 -3.52362,-4.39309 0,-2.56264 0.50337,-4.39309 3.29482,-4.39309 0.91522,0 1.92197,0.0915 2.56263,0.77794 v -4.2558 h 1.96774 V 80.95184 Z M 314.1517,95.68699 v -5.12527 c 0,-1.05251 0.0915,-1.78469 -1.32708,-1.78469 -1.92198,0 -1.69317,1.73893 -1.69317,2.97449 v 3.93547 h -1.96774 v -5.12527 c 0,-1.05251 0.0457,-1.78469 -1.32708,-1.78469 -1.92198,0 -1.69317,1.73893 -1.69317,3.02025 v 3.88971 h -1.96774 v -8.51161 h 1.69317 v 0.73218 c 0.50338,-0.50337 1.23556,-0.86946 2.33383,-0.86946 0.96099,0 1.73893,0.32032 2.24231,0.86946 0.64066,-0.5949 1.37284,-0.86946 2.56263,-0.86946 1.32708,0 2.42535,0.45761 2.83721,1.46436 0.27456,0.64066 0.2288,1.37284 0.2288,2.05926 v 5.07951 h -1.92197 z m 7.6879,-6.90996 c -1.92197,0 -2.05926,0.73218 -2.05926,2.65416 0,1.92197 0.18305,2.65416 2.05926,2.65416 1.92199,0 2.05926,-0.73219 2.05926,-2.65416 0,-1.92198 -0.18304,-2.65416 -2.05926,-2.65416 m 3.11178,6.08626 c -0.73218,0.73218 -1.78469,0.96099 -3.15753,0.96099 -1.37284,0 -2.42535,-0.22881 -3.15754,-0.96099 -0.73218,-0.73218 -0.91522,-1.83046 -0.91522,-3.4321 0,-1.60165 0.13728,-2.69992 0.91522,-3.43211 0.73219,-0.73218 1.73894,-0.96098 3.15754,-0.96098 1.37284,0 2.42535,0.2288 3.15753,0.96098 0.73218,0.73219 0.91523,1.83046 0.91523,3.43211 0,1.6474 -0.18305,2.74568 -0.91523,3.4321 m 8.19128,0.82371 v -4.48462 c 0,-1.64741 0.13729,-2.42535 -1.55588,-2.42535 -2.10502,0 -1.96774,1.46436 -1.96774,2.92872 v 3.93548 h -1.96774 v -8.51161 h 1.69317 v 0.68642 c 0.50338,-0.41185 1.23556,-0.82371 2.47111,-0.82371 3.43211,0 3.29482,2.15079 3.29482,4.027 v 4.6219 h -1.96774 z m 16.06224,3.34057 h -2.05926 l 1.46436,-3.52362 -3.24905,-8.32857 h 2.10502 l 2.15078,6.13202 2.10502,-6.13202 h 2.10503 z m 9.42684,-29.74488 h 1.96774 v 1.96774 h -1.96774 z"
     id="path998"
     style="fill:#ffffff;stroke-width:0.45761356" />
</svg>
