<svg width="8.549mm" height="6.2471mm" version="1.1" viewBox="0 0 8.549 6.2471" xmlns="http://www.w3.org/2000/svg">
 <path d="m0 0.012007h8.585v6.2316h-8.585z" fill="#fff" opacity="1.0" stroke-width="1.0001" style="paint-order:stroke markers fill"/>
 <g transform="translate(-107.04 -142.4)" fill="#2e2a74">
  <path d="m108.56 146.73c0.74438-0.51001 1.582-1.0375 2.2585-1.8377 0.50276-0.63655 0.73256-1.4854 0.76066-2.4911 0.1264 0.81366 0.26533 1.6198 0.65041 2.2782 0.56093 0.7263 1.5251 1.4194 2.4318 2.0469-0.93981-0.51684-1.264-0.66154-1.8849-0.67653-1.0005 0.41184-1.1688 1.3935-1.1738 2.5912-0.30488-0.83261 0.0451-1.8659-0.96701-2.5157-0.82391-0.28867-2.0756 0.60469-2.0756 0.60469z" stroke-width="1.0001" style="paint-order:stroke markers fill"/>
  <g transform="scale(.87655 1.1408)" fill="#2e2a74" stroke-width=".17069" aria-label="WHITE">
   <path d="m123.06 130.29h-0.03l-0.27537-0.74543-0.24069 0.74543h-0.032l-0.21802-0.70409q-0.0293-0.096-0.0427-0.12735-0.0127-0.032-0.034-0.0467-0.0207-0.0153-0.0693-0.0173v-0.0307h0.33937v0.0307q-0.0613 4e-3 -0.0787 0.018-0.0173 0.0133-0.0173 0.038 0 0.022 0.028 0.11268l0.16136 0.52673 0.23603-0.72609h0.0373l0.26537 0.72609 0.13802-0.48006q0.0273-0.0973 0.0273-0.12734 0-0.088-0.094-0.088v-0.0307h0.2467v0.0307q-0.0547 4e-3 -0.0813 0.0407-0.0267 0.036-0.0673 0.17402z"/>
   <path d="m124.19 129.82h-0.47206v0.21802q0 0.10668 5e-3 0.14002 5e-3 0.0327 0.0267 0.0487 0.022 0.016 0.0827 0.016h0.0233v0.0307h-0.40672v-0.0307h0.0233q0.058 0 0.08-0.0147 0.0227-0.0147 0.0287-0.0453 7e-3 -0.0313 7e-3 -0.14469v-0.44338q0-0.10802-7e-3 -0.13935-6e-3 -0.0313-0.0267-0.0433-0.02-0.012-0.0887-0.012h-0.0167v-0.0307h0.40672v0.0307h-0.0167q-0.066 0-0.0867 0.0113-0.0207 0.0107-0.028 0.0407-7e-3 0.03-7e-3 0.14269v0.17935h0.47206v-0.17935q0-0.10802-6e-3 -0.13935-6e-3 -0.0313-0.0267-0.0433-0.02-0.012-0.0887-0.012h-0.024v-0.0307h0.41138v0.0307h-0.0133q-0.0667 0-0.0874 0.0113-0.0207 0.0107-0.028 0.0407-7e-3 0.03-7e-3 0.14269v0.44338q0 0.10668 5e-3 0.14002 5e-3 0.0327 0.0273 0.0487 0.022 0.016 0.0827 0.016h0.0207v0.0307h-0.41138v-0.0307h0.0313q0.0573 0 0.0794-0.0147 0.0227-0.0147 0.0287-0.0453 6e-3 -0.0313 6e-3 -0.14469z"/>
   <path d="m124.54 129.4v-0.0307h0.41338v0.0307h-0.0193q-0.0667 0-0.0873 0.0113-0.0207 0.0107-0.028 0.0407-7e-3 0.03-7e-3 0.14269v0.44338q0 0.10668 5e-3 0.14002 5e-3 0.0327 0.0267 0.0487 0.022 0.016 0.0833 0.016h0.0267v0.0307h-0.41338v-0.0307h0.0267q0.058 0 0.08-0.0147 0.0227-0.0147 0.0287-0.0453 6e-3 -0.0313 6e-3 -0.14469v-0.44338q0-0.10802-6e-3 -0.13935-6e-3 -0.0313-0.0267-0.0433t-0.0893-0.012z"/>
   <path d="m125.05 129.58h-0.0307l5e-3 -0.21736h0.87744l5e-3 0.21736h-0.0287q-0.0153-0.0893-0.042-0.12868-0.0267-0.04-0.0573-0.0487-0.0307-9e-3 -0.10468-9e-3h-0.14535v0.63807q0 0.10602 5e-3 0.13935 5e-3 0.0333 0.0273 0.0493 0.022 0.016 0.0827 0.016h0.044v0.0307h-0.45072v-0.0307h0.0467q0.058 0 0.08-0.0147 0.0227-0.0147 0.0287-0.0453 7e-3 -0.0313 7e-3 -0.14469v-0.63807h-0.13401q-0.0874 0-0.11735 9e-3 -0.03 8e-3 -0.0567 0.05-0.026 0.042-0.04 0.12801z"/>
   <path d="m126.72 129.99h0.032l-0.0193 0.28136h-0.74876v-0.0307h0.0187q0.0673 0 0.0867-0.018 0.02-0.018 0.0253-0.0453 5e-3 -0.028 5e-3 -0.14135v-0.44338q0-0.10335-6e-3 -0.13602-5e-3 -0.0327-0.026-0.0453-0.02-0.0133-0.0854-0.0133v-0.0307h0.64608l0.0213 0.22537h-0.0313q-0.0213-0.0947-0.0527-0.13402-0.0307-0.04-0.0733-0.05-0.0427-0.0107-0.13736-0.0107h-0.12534v0.37937h0.096q0.066 0 0.092-0.0113 0.0267-0.0113 0.0347-0.034 9e-3 -0.0233 9e-3 -0.09h0.0313v0.30938h-0.0313q0-0.0753-0.0127-0.10068-0.0127-0.026-0.0373-0.0333-0.024-8e-3 -0.082-8e-3h-0.0993v0.21402q0 0.16069 0.0207 0.18936 0.0207 0.028 0.11134 0.028h0.0673q0.0713 0 0.11735-0.018 0.046-0.0187 0.0874-0.0753 0.042-0.0573 0.066-0.15735z"/>
  </g>
  <g transform="scale(.87655 1.1408)" fill="#2e2a74" stroke-width=".17069" aria-label="EAGLE">
   <path d="m128.23 130h0.032l-0.0193 0.28137h-0.74876v-0.0307h0.0187q0.0673 0 0.0867-0.018 0.02-0.018 0.0253-0.0453 5e-3 -0.028 5e-3 -0.14136v-0.44338q0-0.10335-6e-3 -0.13602-5e-3 -0.0327-0.026-0.0453-0.02-0.0133-0.0853-0.0133v-0.0307h0.64608l0.0213 0.22536h-0.0313q-0.0213-0.0947-0.0527-0.13402-0.0307-0.04-0.0733-0.05-0.0427-0.0107-0.13735-0.0107h-0.12535v0.37938h0.096q0.066 0 0.092-0.0113 0.0267-0.0113 0.0347-0.034 9e-3 -0.0233 9e-3 -0.09h0.0313v0.30937h-0.0313q0-0.0753-0.0127-0.10068-0.0127-0.026-0.0373-0.0333-0.024-8e-3 -0.082-8e-3h-0.0994v0.21403q0 0.16068 0.0207 0.18935 0.0207 0.028 0.11135 0.028h0.0673q0.0713 0 0.11735-0.018 0.046-0.0187 0.0873-0.0753 0.042-0.0573 0.066-0.15735z"/>
   <path d="m128.89 129.95h-0.34337l-0.0233 0.0573q-0.052 0.12468-0.052 0.16269 0 0.0407 0.0273 0.062 0.028 0.0207 0.0713 0.0207v0.0307h-0.2687v-0.0307q0.06-9e-3 0.0893-0.042 0.0293-0.0333 0.0707-0.13935 3e-3 -0.01 0.032-0.0773l0.2627-0.62741h0.026l0.30204 0.71809 0.0413 0.0947q0.014 0.032 0.0373 0.0507 0.024 0.018 0.0713 0.0227v0.0307h-0.35537v-0.0307q0.0653 0 0.088-9e-3 0.0233-0.01 0.0233-0.0387 0-0.0147-0.0307-0.0873zm-0.0113-0.03-0.16002-0.38538-0.15935 0.38538z"/>
   <path d="m129.81 129.9h0.39005v0.032q-0.0647 0-0.088 0.0133-0.0227 0.0127-0.03 0.0433-7e-3 0.03-7e-3 0.14668v0.096q-0.016-3e-3 -0.0287-3e-3 -0.0513 0-0.13468 0.0313-0.11335 0.0427-0.21003 0.0427-0.19402 0-0.32271-0.12735-0.12868-0.12802-0.12868-0.32404 0-0.19403 0.12268-0.34004 0.12269-0.14602 0.33338-0.14602 0.18135 0 0.30003 0.13335 0.022-0.0467 0.028-0.10068h0.032v0.30204h-0.032q-0.0193-0.13936-0.10601-0.2207-0.086-0.0813-0.20936-0.0813-0.12735 0-0.22203 0.0947-0.0947 0.0947-0.0947 0.33604 0 0.24069 0.0913 0.34137 0.0913 0.10001 0.22669 0.10001 0.0693 0 0.12602-0.028 0.0567-0.0287 0.0773-0.0693 0.0207-0.0407 0.0207-0.10268 0-0.0727-0.01-0.0967-9e-3 -0.0247-0.0293-0.0327-0.02-9e-3 -0.0733-9e-3h-0.0213z"/>
   <path d="m131.05 130.02-7e-3 0.26604h-0.76809v-0.0307h0.0267q0.058 0 0.08-0.0147 0.0227-0.0147 0.0287-0.0453 7e-3 -0.0313 7e-3 -0.14469v-0.44338q0-0.10802-7e-3 -0.13935-6e-3 -0.0313-0.0267-0.0433-0.02-0.012-0.0887-0.012h-0.02v-0.0307h0.43405v0.0307h-0.04q-0.0667 0-0.0874 0.0113-0.0207 0.0107-0.028 0.0407-7e-3 0.03-7e-3 0.14269v0.47339q0 0.098 5e-3 0.12268 5e-3 0.0247 0.0287 0.0387 0.024 0.0133 0.10201 0.0133h0.0687q0.0833 0 0.12334-0.0147 0.0407-0.0147 0.0767-0.064 0.0367-0.0493 0.0667-0.15669z"/>
   <path d="m131.84 130h0.032l-0.0193 0.28137h-0.74876v-0.0307h0.0187q0.0673 0 0.0867-0.018 0.02-0.018 0.0253-0.0453 5e-3 -0.028 5e-3 -0.14136v-0.44338q0-0.10335-6e-3 -0.13602-5e-3 -0.0327-0.026-0.0453-0.02-0.0133-0.0853-0.0133v-0.0307h0.64608l0.0213 0.22536h-0.0313q-0.0213-0.0947-0.0527-0.13402-0.0307-0.04-0.0733-0.05-0.0427-0.0107-0.13735-0.0107h-0.12535v0.37938h0.096q0.066 0 0.092-0.0113 0.0267-0.0113 0.0347-0.034 9e-3 -0.0233 9e-3 -0.09h0.0313v0.30937h-0.0313q0-0.0753-0.0127-0.10068-0.0127-0.026-0.0373-0.0333-0.024-8e-3 -0.082-8e-3h-0.0993v0.21403q0 0.16068 0.0207 0.18935 0.0207 0.028 0.11135 0.028h0.0673q0.0713 0 0.11735-0.018 0.046-0.0187 0.0873-0.0753 0.042-0.0573 0.066-0.15735z"/>
  </g>
 </g>
</svg>
