<svg version="1.1" xmlns="http://www.w3.org/2000/svg" xmlns:xlink="http://www.w3.org/1999/xlink" x="0px" y="0px" viewBox="0 0 183 80.99" enable-background="new 0 0 183 80.99" xml:space="preserve">
<path fill="#D03027" d="M120.44,46.07c-0.01,0.01-0.02,0.01-0.02,0.02c-7.56,5.35-16.51,10.97-26.14,16.87l-0.38,0.22 c-0.13,0.09-0.16,0.27-0.07,0.4c0.09,0.13,0.27,0.16,0.4,0.07l0.32-0.17c8.17-4.26,17.55-9.32,26.99-14.51 c0.05-0.03,0.1-0.06,0.15-0.08C121.17,48.03,120.74,47.09,120.44,46.07z M170.04,5.92C158.13-7.22,81.48,4.6,48.89,11.72l-0.76,0.16 c-0.16,0.03-0.26,0.18-0.23,0.33c0.03,0.16,0.18,0.26,0.33,0.23l0.75-0.15c27-4.81,83.16-11.47,95.24,0.51 c3.69,3.66,2.81,8.36-1.47,13.92c2.3,1.48,3.94,3.81,4.68,6.72C164.13,22.36,175.34,11.77,170.04,5.92z"/>
<path fill="#004977" d="M125.26,42.62c0.15,4.62,3.08,8.41,6.89,8.41c7.39,0,10.54-9.08,10.32-15.14 c-0.16-4.63-3.16-8.41-6.97-8.41C129.15,27.47,125.04,36.51,125.26,42.62z M121.36,42.37c-0.27-7.89,5.91-15.96,14.89-15.96 c6,0,9.93,4,10.15,10.13c0.29,8.32-5.49,15.96-14.88,15.96C125.5,52.5,121.57,48.51,121.36,42.37z"/>
<path fill="#004977" d="M36.31,40.29c-0.32,0.12-0.73,0.24-1.25,0.35c-0.51,0.12-1.45,0.28-2.81,0.5 c-0.94,0.15-1.59,0.34-1.96,0.61c-0.35,0.26-0.56,0.57-0.62,0.96c-0.07,0.41,0.06,0.73,0.41,0.99c0.36,0.25,0.96,0.38,1.81,0.38 c0.64,0,1.26-0.1,1.86-0.3c0.61-0.2,1.13-0.47,1.52-0.81c0.29-0.25,0.5-0.57,0.66-0.96C36.03,41.75,36.16,41.18,36.31,40.29z M44.11,35.44c-0.03,0.72-0.16,1.36-0.35,2.47l-1.32,7.41c-0.11,0.66,0.13,1.17,0.74,1.53l-0.04,0.29l-7.56-0.01l-0.07-1.88 c-1.1,0.66-2.43,1.22-3.63,1.55c-1.2,0.31-2.17,0.44-3.62,0.44c-2.44,0-3.84-0.25-4.81-1.1c-0.98-0.87-1.46-1.45-1.41-2.65 c0.04-0.69,0.4-1.58,0.91-2.2c0.52-0.63,1.24-1.04,2.01-1.41c0.78-0.37,1.7-0.64,3.03-0.85c1.34-0.22,3.2-0.43,5.69-0.64 c1.31-0.11,2.11-0.41,2.48-0.56c0.52-0.2,0.73-0.43,0.8-0.85c0.14-0.76-0.1-1.2-1.12-1.4c-2.72-0.54-7.83,0.35-10.46,1l1.43-3.86 c3.47-0.51,6.72-0.83,10.15-0.83C42.43,31.89,44.17,33.44,44.11,35.44z"/>
<path fill="#004977" d="M66.03,47.13l2.62-14.81h7.24l-2.62,14.81H66.03z M69.05,28.89c0.22-1.22,2.14-2.2,4.28-2.2 c2.15,0,3.72,0.99,3.51,2.2c-0.23,1.22-2.14,2.21-4.3,2.21C70.4,31.1,68.84,30.11,69.05,28.89z"/>
<path fill="#004977" d="M101.6,40.32c-0.33,0.11-0.75,0.23-1.26,0.35c-0.51,0.12-1.45,0.27-2.81,0.49 c-0.93,0.15-1.59,0.34-1.95,0.61c-0.35,0.25-0.55,0.57-0.63,0.95c-0.08,0.41,0.07,0.74,0.41,0.99c0.37,0.25,0.97,0.37,1.82,0.37 c0.63,0,1.25-0.09,1.86-0.28c0.62-0.21,1.13-0.47,1.53-0.81c0.28-0.25,0.49-0.58,0.64-0.96C101.31,41.78,101.44,41.21,101.6,40.32z M109.4,35.46c-0.03,0.73-0.16,1.37-0.36,2.47l-1.31,7.42c-0.11,0.65,0.13,1.17,0.74,1.53l-0.04,0.26l-7.56,0.01l-0.06-1.89 c-1.1,0.67-2.44,1.23-3.63,1.55c-1.2,0.32-2.17,0.45-3.64,0.45c-2.44,0-3.83-0.24-4.8-1.1c-0.99-0.88-1.46-1.45-1.41-2.65 c0.03-0.7,0.39-1.59,0.91-2.2c0.52-0.64,1.24-1.04,2.02-1.41c0.78-0.37,1.7-0.64,3.02-0.86c1.34-0.21,3.21-0.43,5.7-0.64 c1.3-0.11,2.1-0.4,2.47-0.55c0.53-0.2,0.73-0.43,0.81-0.86c0.13-0.75-0.1-1.19-1.11-1.4c-2.74-0.54-7.83,0.35-10.46,1l1.42-3.86 c3.48-0.51,6.72-0.83,10.15-0.83C107.71,31.91,109.45,33.47,109.4,35.46z"/>
<path fill="#004977" d="M21.06,41.81c-2.36,0.47-3.68,0.65-6.01,0.65c-3.46,0-6.21-1.72-6.06-4.87c0.11-2.1,2.59-6.52,8.9-6.52 c1.99,0,3.54,0.35,5.63,1.54l0.92-5.14c-2.84-1.07-4.72-1.23-7.16-1.21C9,26.35,1.06,30.11,0.07,37.76c-1,7.77,8.49,9.72,12.7,9.7 c2.43-0.01,4.96-0.11,7.32-0.35L21.06,41.81z"/>
<path fill="#004977" d="M79.88,32.24l0.52-3.02l7.57-1.65l-0.81,4.66h3.71l-0.7,2.98l-3.6-0.01l-2.19,11.91c0,0-7.29-0.05-7.32,0 l2.18-11.88H76.5l0.56-3H79.88z"/>
<polygon fill="#004977" points="116.75,47.12 109.38,47.13 113.09,26.47 120.27,26.67 	"/>
<path fill="#004977" d="M56.45,35.79c-0.95,0-1.81,0.29-2.57,0.86c-0.76,0.58-1.24,1.42-1.43,2.53c-0.23,1.29-0.09,2.22,0.42,2.79 c0.52,0.57,1.26,0.86,2.24,0.86c0.66,0,1.34-0.12,1.84-0.37c0.62-0.33,1.05-0.67,1.42-1.22c0.4-0.57,0.66-1.21,0.8-1.95 c0.21-1.17,0.03-2.04-0.51-2.62C58.13,36.09,57.4,35.79,56.45,35.79z M43.27,52.24L46.8,32.4h6.36l-0.49,2.53 c0.55-0.76,1.43-1.38,2.65-1.88c1.23-0.5,2.61-0.87,4.11-0.87c1.66,0,2.68,0.09,3.92,0.73c1.23,0.65,2.1,1.59,2.56,2.81 c0.48,1.2,0.58,2.56,0.32,4.03c-0.43,2.45-1.62,4.37-3.58,5.79c-1.94,1.42-3.69,1.79-6.18,1.8c-0.88,0-1.62-0.09-2.23-0.24 c-0.6-0.16-1.08-0.35-1.44-0.58c-0.35-0.23-0.72-0.56-1.19-1.08l-1.18,6.8H43.27z"/>
<path fill="#004977" d="M174.69,37.61c-0.04-1.19-0.64-2-1.87-2c-2.97,0-6.13,5.82-6.67,8.16 C171.02,43.78,174.81,40.88,174.69,37.61z M175.33,46.73l0.57,0.39c-1.45,2.95-4.4,5.32-7.86,5.32c-2.83,0-5.16-1.89-5.28-5.43 c-0.23-6.35,5.72-12.24,10.59-12.24c2.09,0,4.03,0.91,4.11,3.16c0.18,5.05-6.91,6.59-11.58,6.7c-0.15,0.53-0.21,1.06-0.18,1.86 c0.08,2.09,1.34,3.85,3.96,3.85C171.92,50.34,174.18,48.52,175.33,46.73z"/>
<path fill="#004977" d="M146.29,37.45c0.5-0.07,1.31-0.16,1.66-0.16c0.53,0,1.03,0.1,1.06,0.63c0.01,0.31-0.55,2.56-0.67,3.08 l-1.13,4.98c-0.46,2.04-0.95,4.17-1.39,5.86h2.9l1.63-7.89c4.97-5.18,6.89-6.87,8.06-6.87c0.53,0,0.89,0.28,0.92,0.91 c0.03,0.91-0.54,2.98-0.73,3.58l-1.66,5.75c-0.38,1.29-0.66,2.46-0.63,3.29c0.05,1.26,0.81,1.82,1.95,1.82c2.12,0,3.66-2.21,5-4.38l-0.39-0.71c-0.54,0.87-1.8,2.78-2.79,2.78c-0.31,0-0.61-0.21-0.62-0.73c-0.03-0.67,0.25-1.68,0.45-2.35 l1.85-6.74 c0.5-1.86,0.73-3.05,0.72-3.69c-0.05-1.26-0.78-1.85-1.91-1.85c-1.91,0-4.44,1.4-9.81,7.57h-0.08l0.68-3.01	c0.37-1.65,0.73-3.37,1.07-4.56c-1.86,0.67-4.52,1.42-6.16,1.74L146.29,37.45z"/>
<path fill="#004977" d="M51.23,73.15h1.36l-0.28,1.32h-1.36l-0.41,1.92c-0.05,0.23-0.08,0.4-0.08,0.48c0,0.4,0.17,0.57,0.6,0.57 c0.15,0,0.36-0.03,0.63-0.11l-0.28,1.32c-0.44,0.08-0.79,0.12-1.06,0.12c-1.14,0-1.8-0.61-1.8-1.67c0-0.19,0.02-0.37,0.05-0.55 l0.44-2.08h-1.12l0.28-1.32h1.12l0.28-1.31l2.01-0.53L51.23,73.15z"/>
<path fill="#004977" d="M56.12,70.62l-0.67,3.2c0.56-0.55,1.16-0.81,1.84-0.81c1.13,0,1.8,0.7,1.8,1.93c0,0.35-0.06,0.86-0.2,1.52 l-0.46,2.19H56.5l0.59-2.76c0.04-0.2,0.06-0.39,0.06-0.55c0-0.52-0.27-0.81-0.7-0.81c-0.76,0-1.27,0.6-1.53,1.8l-0.49,2.32H52.5 l1.7-8.03H56.12z"/>
<path fill="#004977" d="M61.73,76.39c0.07,0.81,0.52,1.19,1.41,1.19c0.59,0,1.24-0.14,1.87-0.42l-0.21,1.36 c-0.65,0.2-1.34,0.31-2.03,0.31c-1.73,0-2.76-1.02-2.76-2.58c0-0.9,0.39-1.83,0.98-2.42c0.58-0.57,1.41-0.87,2.45-0.87	c1.53,0,2.37,0.87,2.37,2.38c0,0.31-0.04,0.66-0.13,1.05H61.73z M64.24,75.07c0-0.61-0.37-1-0.96-1s-1.08,0.46-1.29,1.25h2.24	C64.23,75.24,64.24,75.16,64.24,75.07z"/>
<path fill="#004977" d="M75.41,74.67c-0.41-0.19-0.8-0.29-1.18-0.29c-1.03,0-1.7,0.64-1.7,1.59c0,0.82,0.55,1.35,1.42,1.35	c0.35,0,0.71-0.08,1.09-0.26l-0.22,1.46c-0.58,0.15-1.09,0.22-1.57,0.22c-1.69,0-2.73-1.04-2.73-2.56c0-1.86,1.34-3.2,3.49-3.2	c0.62,0,1.23,0.12,1.84,0.36L75.41,74.67z"/>
<path fill="#004977" d="M81.28,77.26c-0.09,0.4-0.18,0.86-0.23,1.39h-1.6l0.11-0.84c-0.43,0.63-1.08,0.95-1.91,0.95	c-1.13,0-1.84-0.66-1.84-1.64c0-1.23,1.13-2,3.24-2c0.28,0,0.58,0.02,0.89,0.05c0.01-0.06,0.01-0.13,0.01-0.18 c0-0.56-0.36-0.86-1.06-0.86c-0.64,0-1.24,0.14-1.8,0.42l0.23-1.28c0.6-0.21,1.2-0.32,1.83-0.32c1.66,0,2.56,0.7,2.56,1.76	c0,0.26-0.04,0.6-0.12,0.98L81.28,77.26z M79.18,76.11c-1.03,0-1.56,0.3-1.56,0.86c0,0.36,0.28,0.62,0.71,0.62	c0.66,0,1.26-0.53,1.4-1.46C79.54,76.11,79.35,76.11,79.18,76.11z"/>
<path fill="#004977" d="M87.13,74.72c-0.34-0.1-0.62-0.15-0.83-0.15c-0.88,0-1.25,0.55-1.51,1.7l-0.51,2.38h-1.93l1.12-5.52h1.74	l-0.2,1.01c0.54-0.77,1.07-1.14,1.82-1.14c0.24,0,0.47,0.04,0.73,0.12L87.13,74.72z"/>
<path fill="#004977" d="M95.23,70.62l-1.7,8.03h-1.71l0.2-0.92c-0.54,0.72-1.22,1.08-2.01,1.08c-1.31,0-2.15-0.93-2.15-2.45	c0-2,1.21-3.36,2.92-3.36c0.8,0,1.43,0.37,1.81,1.08l0.75-3.46H95.23z M91.21,74.42c-0.74,0-1.38,0.79-1.38,1.89	c0,0.64,0.39,1.07,0.95,1.07c0.77,0,1.46-0.79,1.46-1.84C92.23,74.87,91.81,74.42,91.21,74.42z"/>
<path fill="#004977" d="M101.87,73.15l-1.17,5.5h-1.87l1.17-5.5H101.87z M102.37,70.82l-0.3,1.39h-1.87l0.29-1.39H102.37z"/>
<path fill="#004977" d="M108.13,78.65h-1.92l0.58-2.76c0.04-0.2,0.06-0.39,0.06-0.55c0-0.52-0.27-0.81-0.7-0.81	c-0.76,0-1.26,0.6-1.52,1.8l-0.49,2.32h-1.93l1.18-5.56h1.72l-0.21,0.98c0.62-0.71,1.33-1.07,2.1-1.07c1.13,0,1.8,0.7,1.8,1.93	c0,0.35-0.06,0.86-0.2,1.52L108.13,78.65z"/>
<path fill="#004977" d="M114.97,73.15l0.33,2.21c0.05,0.36,0.13,0.87,0.17,1.49c0.23-0.54,0.41-0.92,0.54-1.17l1.37-2.54h2	l-3.53,6.06c-0.71,1.21-1.32,1.79-2.58,1.79c-0.43,0-0.91-0.1-1.47-0.28l0.45-1.34c0.29,0.13,0.56,0.19,0.8,0.19	c0.59,0,1-0.3,1.23-0.88l-1.23-5.54H114.97z"/>
<path fill="#004977" d="M125.82,75.59c0,1.88-1.37,3.22-3.56,3.22c-1.77,0-2.83-0.97-2.83-2.52c0-1.97,1.33-3.3,3.53-3.3	C124.75,72.99,125.82,73.98,125.82,75.59z M122.86,74.26c-0.77,0-1.48,0.84-1.48,2.01c0,0.73,0.44,1.24,1.06,1.24	c0.77,0,1.44-0.83,1.44-2.01C123.88,74.73,123.47,74.26,122.86,74.26z"/>
<path fill="#004977" d="M129.08,73.15l-0.58,2.76c-0.04,0.19-0.06,0.37-0.06,0.55c0,0.53,0.26,0.82,0.73,0.82	c0.7,0,1.23-0.61,1.49-1.81l0.49-2.32h1.93l-1.18,5.5h-1.72l0.21-0.93c-0.62,0.71-1.33,1.07-2.1,1.07c-1.13,0-1.8-0.69-1.8-1.92	c0-0.36,0.06-0.88,0.2-1.53l0.46-2.19H129.08z"/>
<path fill="#004977" d="M137.67,74.72c-0.34-0.1-0.62-0.15-0.83-0.15c-0.88,0-1.25,0.55-1.51,1.7l-0.51,2.38h-1.93l1.12-5.52h1.74	l-0.2,1.01c0.54-0.77,1.07-1.14,1.82-1.14c0.24,0,0.47,0.04,0.73,0.12L137.67,74.72z"/>
<path fill="#004977" d="M146.21,74.67c-0.41-0.19-0.8-0.29-1.18-0.29c-1.03,0-1.7,0.64-1.7,1.59c0,0.82,0.55,1.35,1.42,1.35	c0.35,0,0.71-0.08,1.09-0.26l-0.22,1.46c-0.58,0.15-1.09,0.22-1.57,0.22c-1.69,0-2.73-1.04-2.73-2.56c0-1.86,1.34-3.2,3.49-3.2	c0.62,0,1.23,0.12,1.84,0.36L146.21,74.67z"/>
<path fill="#004977" d="M153.16,75.59c0,1.88-1.37,3.22-3.56,3.22c-1.77,0-2.83-0.97-2.83-2.52c0-1.97,1.33-3.3,3.53-3.3	C152.09,72.99,153.16,73.98,153.16,75.59z M150.2,74.26c-0.77,0-1.48,0.84-1.48,2.01c0,0.73,0.44,1.24,1.06,1.24	c0.77,0,1.44-0.83,1.44-2.01C151.23,74.73,150.81,74.26,150.2,74.26z"/>
<path fill="#004977" d="M158.52,74.72c-0.34-0.1-0.62-0.15-0.83-0.15c-0.88,0-1.25,0.55-1.51,1.7l-0.51,2.38h-1.93l1.12-5.52h1.74	l-0.2,1.01c0.54-0.77,1.07-1.14,1.82-1.14c0.24,0,0.47,0.04,0.73,0.12L158.52,74.72z"/>
<path fill="#004977" d="M164.8,78.65h-1.92l0.58-2.76c0.04-0.2,0.06-0.39,0.06-0.55c0-0.52-0.27-0.81-0.7-0.81	c-0.76,0-1.26,0.6-1.52,1.8l-0.49,2.32h-1.93l1.18-5.56h1.72l-0.21,0.98c0.62-0.71,1.33-1.07,2.1-1.07c1.13,0,1.8,0.7,1.8,1.93	c0,0.35-0.06,0.86-0.2,1.52L164.8,78.65z"/>
<path fill="#004977" d="M167.93,76.39c0.07,0.81,0.52,1.19,1.41,1.19c0.59,0,1.24-0.14,1.87-0.42L171,78.52	c-0.65,0.2-1.34,0.31-2.03,0.31c-1.73,0-2.76-1.02-2.76-2.58c0-0.9,0.39-1.83,0.98-2.42c0.58-0.57,1.41-0.87,2.45-0.87	c1.53,0,2.37,0.87,2.37,2.38c0,0.31-0.04,0.66-0.13,1.05H167.93z M170.44,75.07c0-0.61-0.37-1-0.96-1c-0.59,0-1.08,0.46-1.29,1.25	h2.24C170.42,75.24,170.44,75.16,170.44,75.07z"/>
<path fill="#004977" d="M177.35,74.72c-0.34-0.1-0.62-0.15-0.83-0.15c-0.88,0-1.25,0.55-1.51,1.7l-0.51,2.38h-1.93l1.12-5.52h1.74	l-0.2,1.01c0.54-0.77,1.07-1.14,1.82-1.14c0.24,0,0.47,0.04,0.73,0.12L177.35,74.72z"/>
<path fill="#004977" d="M182.45,73.12c-0.36,0.37-0.81,0.55-1.32,0.55c-0.52,0-0.96-0.18-1.32-0.55c-0.36-0.36-0.54-0.81-0.54-1.33 c0-0.51,0.18-0.95,0.55-1.32c0.36-0.36,0.8-0.54,1.32-0.54c0.52,0,0.96,0.18,1.32,0.54c0.36,0.36,0.55,0.8,0.55,1.32 C183,72.31,182.82,72.75,182.45,73.12z M180,70.66c-0.31,0.31-0.47,0.69-0.47,1.14c0,0.45,0.16,0.83,0.47,1.14 c0.31,0.32,0.69,0.47,1.14,0.47c0.45,0,0.83-0.16,1.14-0.47c0.31-0.32,0.47-0.7,0.47-1.14c0-0.44-0.16-0.82-0.47-1.14 c-0.31-0.32-0.69-0.47-1.14-0.47C180.69,70.18,180.31,70.34,180,70.66z M181.09,70.76c0.25,0,0.44,0.02,0.56,0.07 c0.21,0.09,0.32,0.26,0.32,0.52c0,0.18-0.07,0.32-0.2,0.4c-0.07,0.05-0.17,0.08-0.3,0.1c0.16,0.03,0.28,0.09,0.35,0.2 c0.07,0.11,0.11,0.21,0.11,0.32v0.15c0,0.05,0,0.1,0.01,0.15c0,0.05,0.01,0.09,0.02,0.11l0.01,0.03h-0.34c0-0.01,0-0.01-0.01-0.02 c0-0.01,0-0.01-0.01-0.02l-0.01-0.07v-0.16c0-0.24-0.06-0.39-0.19-0.47c-0.08-0.04-0.21-0.07-0.4-0.07h-0.28v0.81h-0.36v-2.05 H181.09z M181.48,71.09c-0.09-0.05-0.24-0.08-0.44-0.08h-0.31v0.74h0.33c0.15,0,0.27-0.02,0.34-0.05c0.14-0.06,0.21-0.16,0.21-0.32 C181.62,71.24,181.58,71.14,181.48,71.09z"/>
</svg>
