<svg xmlns="http://www.w3.org/2000/svg" height="115.822" width="400"><path d="M391.03 115.822H8.97c-4.943 0-8.97-4.027-8.97-8.97V8.924C0 4.027 4.027 0 8.97 0h382.06c4.943 0 8.97 4.027 8.97 8.97v97.929c-.046 4.896-4.027 8.923-8.97 8.923z" fill="#fff"/><path d="M280.426 110.422H9.06a3.623 3.623 0 01-3.615-3.615V9.061A3.623 3.623 0 019.06 5.446h271.365a3.623 3.623 0 013.615 3.615v97.7c0 2.014-1.648 3.661-3.615 3.661z" fill="#222745"/><path d="M390.94 110.422h-97.701a3.623 3.623 0 01-3.615-3.615V9.061a3.623 3.623 0 013.615-3.615h97.7a3.623 3.623 0 013.615 3.615v97.7c0 2.014-1.601 3.661-3.615 3.661z" fill="#da292f"/><path d="M125.981 67.498v28.189h-5.629V67.498h-9.747v-5.034h25.123v5.034zm53.861 28.189h-5.445l-9.199-23.384h5.812l6.178 17.16 6.178-17.16h5.628zm34.275-33.36h5.4v33.406h-5.4zm48.965 33.36l-5.812-8.42-5.903 8.42h-6.132l8.924-11.852-8.604-11.532h6.361l5.537 7.962 5.583-7.962h6.178l-8.649 11.486 8.924 11.898z" fill="#fff"/><path d="M142.638 72.211c-2.196.183-4.164.733-5.583 2.243v-2.105h-4.713v23.384h5.4v-10.16c0-1.83-.092-4.392.549-6.086.549-1.51 1.373-2.7 5.674-3.066l.55-4.347c-.046 0-.596 0-1.877.137m10.25 19.403c-3.706 0-4.53-1.098-4.53-3.112 0-2.47 1.053-3.066 4.348-3.066h6.269c0 4.073-.55 6.178-6.086 6.178m1.327-19.677c-2.609-.092-5.171.137-6.361.32l-.503 4.119c3.203-.183 6.36-.046 6.59-.046 4.667.183 4.758 1.83 4.941 4.713h-5.994c-4.988 0-9.976.778-9.976 7.551 0 5.72 3.523 7.46 9.106 7.46 3.34 0 5.812-1.008 7.276-2.289v1.922h4.851V80.45c0-6.041-3.707-8.283-9.93-8.512m45.853 4.439c5.033 0 5.308 1.922 5.308 5.262h-10.525c0-3.066.503-5.262 5.217-5.262m-.046 15.33c-3.661-.137-4.85-1.419-5.171-3.753 0-.091-.046-.228-.046-.32v-.183c-.045-.412-.045-.87-.045-1.373h16.016c0-8.145-.458-14.14-10.662-14.14-9.381 0-10.754 5.354-10.754 12.355 0 2.883.274 5.446 1.281 7.414 1.419 3.02 4.576 4.347 9.106 4.347h.504c3.295 0 6.956-.229 8.832-.457l.595-4.348c-3.204.229-5.995.595-9.656.458m33.497-15.33c5.034 0 5.309 1.922 5.309 5.262h-10.526c0-3.066.504-5.262 5.217-5.262m0 15.33c-3.66-.137-4.85-1.419-5.17-3.753 0-.091-.047-.228-.047-.32v-.183c-.045-.412-.045-.87-.045-1.373h16.016c0-8.145-.457-14.14-10.662-14.14-9.381 0-10.754 5.354-10.754 12.355 0 2.883.274 5.446 1.281 7.414 1.419 3.02 4.576 4.347 9.107 4.347h.503c3.295 0 6.956-.229 8.832-.457l.595-4.348c-3.25.229-6.04.595-9.656.458M329.3 72.395c-.824.091-1.51.274-2.014.823v-.778h-1.693v8.512h1.968v-3.707c0-.64-.046-1.601.183-2.196.183-.55.503-1.007 2.06-1.099l.182-1.601c-.046 0-.229 0-.686.045m46.676 1.556c1.83 0 1.922.687 1.922 1.922H374.1c0-1.144.137-1.922 1.876-1.922m0 5.537c-1.327-.045-1.784-.503-1.876-1.372v-.687h5.812c0-2.974-.183-5.125-3.89-5.125-3.386 0-3.89 1.922-3.89 4.485 0 1.052.092 1.967.458 2.7.503 1.098 1.647 1.555 3.295 1.601h.137c1.19 0 2.517-.091 3.203-.183l.23-1.556c-1.145.046-2.197.183-3.479.137m-35.282 9.199c1.83 0 1.922.686 1.922 1.921h-3.798c0-1.144.137-1.921 1.876-1.921m0 5.537c-1.327-.046-1.784-.504-1.876-1.373v-.687h5.812c0-2.974-.183-5.125-3.89-5.125-3.386 0-3.89 1.922-3.89 4.485 0 1.052.092 1.967.458 2.7.503 1.098 1.647 1.556 3.295 1.601h.137c1.19 0 2.517-.091 3.203-.183l.23-1.556c-1.145.092-2.197.183-3.479.138m-28.097-13.271h-1.968l-1.739-6.636-1.785 6.636h-2.059l-2.288-8.512h1.922l1.51 6.361 1.693-6.36h1.922l1.74 6.36 1.464-6.36h1.922zm7.276-6.91c-1.922 0-2.06.732-2.06 2.654s.184 2.654 2.06 2.654c1.922 0 2.06-.732 2.06-2.654s-.184-2.654-2.06-2.654m3.112 6.086c-.733.732-1.785.961-3.158.961s-2.425-.229-3.157-.96c-.733-.733-.916-1.831-.916-3.433 0-1.602.138-2.7.916-3.432.732-.732 1.739-.961 3.157-.961 1.373 0 2.425.229 3.158.96.732.733.915 1.831.915 3.433 0 1.602-.137 2.7-.915 3.432m8.649-11.349h1.967v12.127h-1.967zm7.459 5.354c-1.465 0-1.785.595-1.785 2.609 0 1.968.32 2.608 1.785 2.608 1.693 0 2.196-.457 2.196-2.608-.046-2.151-.549-2.609-2.196-2.609m2.333 6.819v-.687c-.503.458-1.464.824-2.562.824-3.387 0-3.524-2.288-3.524-4.393 0-2.563.504-4.393 3.295-4.393.915 0 1.922.091 2.563.778v-4.256h1.967v12.127zm13.18 0h-1.968l-1.739-6.636-1.785 6.636h-2.059l-2.288-8.512h1.922l1.464 6.361 1.74-6.36h1.921l1.693 6.36 1.51-6.36h1.877zm4.027-8.512h1.967v8.512h-1.967zm7.688 1.693c-1.465 0-1.785.595-1.785 2.609 0 1.968.32 2.608 1.785 2.608 1.693 0 2.196-.457 2.196-2.608-.046-2.151-.549-2.609-2.196-2.609m2.333 6.819v-.687c-.503.458-1.464.824-2.562.824-3.387 0-3.524-2.288-3.524-4.393 0-2.563.504-4.393 3.295-4.393.915 0 1.922.091 2.563.778v-4.256h1.967v12.127zm-54.501 14.735v-5.125c0-1.053.091-1.785-1.327-1.785-1.922 0-1.694 1.739-1.694 2.975v3.935h-1.967v-5.125c0-1.053.045-1.785-1.327-1.785-1.922 0-1.694 1.739-1.694 3.02v3.89h-1.967v-8.512h1.693v.733c.503-.504 1.235-.87 2.334-.87.96 0 1.739.32 2.242.87.64-.595 1.373-.87 2.563-.87 1.327 0 2.425.458 2.837 1.464.274.641.229 1.373.229 2.06v5.08h-1.922zm7.688-6.91c-1.922 0-2.06.732-2.06 2.654s.183 2.654 2.06 2.654c1.922 0 2.059-.732 2.059-2.654s-.183-2.654-2.06-2.654m3.112 6.086c-.732.732-1.784.961-3.157.961s-2.425-.229-3.158-.96c-.732-.733-.915-1.831-.915-3.433 0-1.601.137-2.7.915-3.432.733-.732 1.74-.96 3.158-.96 1.373 0 2.425.228 3.157.96.733.732.916 1.83.916 3.432 0 1.648-.183 2.746-.916 3.432m8.192.824v-4.485c0-1.647.137-2.425-1.556-2.425-2.105 0-1.968 1.464-1.968 2.929v3.935h-1.968V87.13h1.693v.686c.504-.412 1.236-.824 2.472-.824 3.432 0 3.294 2.151 3.294 4.027v4.622h-1.967zm16.062 3.34h-2.06l1.465-3.523-3.249-8.329h2.105l2.15 6.132 2.106-6.132h2.105zm9.427-29.744h1.967v1.967h-1.967z" fill="#fff"/></svg>